%FSLAX43Y43*%
%MOMM*%
G71*
G01*
G75*
G04 Layer_Physical_Order=1*
G04 Layer_Color=255*
%ADD10R,1.500X1.300*%
%ADD11R,1.000X1.100*%
%ADD12R,1.100X1.000*%
%ADD13R,1.500X2.000*%
%ADD14R,2.000X1.500*%
%ADD15R,1.300X1.500*%
%ADD16R,0.950X0.900*%
%ADD17R,0.950X0.900*%
%ADD18C,1.500*%
%ADD19C,1.000*%
%ADD20C,0.800*%
%ADD21C,0.180*%
%ADD22C,0.254*%
%ADD23R,2.540X2.540*%
%ADD24R,3.048X5.842*%
%ADD25R,3.810X1.016*%
%ADD26R,4.064X1.016*%
%ADD27R,3.175X3.810*%
%ADD28R,7.747X12.446*%
%ADD29R,4.826X2.667*%
%ADD30R,4.953X2.921*%
%ADD31R,4.826X2.540*%
%ADD32R,3.302X4.953*%
%ADD33R,4.445X2.413*%
%ADD34R,4.445X2.286*%
%ADD35C,2.000*%
%ADD36O,2.200X1.800*%
%ADD37C,1.400*%
%ADD38O,1.500X2.000*%
%ADD39C,1.000*%
%ADD40R,2.000X2.000*%
%ADD41C,1.270*%
G36*
X77470Y127374D02*
X82042D01*
Y88526D01*
X77216D01*
X77135Y88518D01*
X73734D01*
X73653Y88526D01*
X73333D01*
X73275Y88639D01*
X73352Y88747D01*
X73482Y89034D01*
X73554Y89341D01*
X73564Y89656D01*
X73513Y89967D01*
X73402Y90262D01*
X73236Y90529D01*
X73020Y90759D01*
X72764Y90943D01*
X72477Y91073D01*
X72170Y91145D01*
X71855Y91155D01*
X71544Y91104D01*
X71249Y90993D01*
X71200Y90962D01*
X70825D01*
Y91100D01*
Y93000D01*
D01*
Y93000D01*
X70905Y93080D01*
X72401D01*
Y97420D01*
X70115D01*
Y100722D01*
X65267D01*
Y93080D01*
X65870D01*
X65913Y92960D01*
X65900Y92950D01*
X65663Y92661D01*
X65486Y92331D01*
X65377Y91972D01*
X65341Y91600D01*
X65377Y91228D01*
X65486Y90869D01*
X65663Y90539D01*
X65900Y90250D01*
X66189Y90013D01*
X66519Y89836D01*
X66878Y89727D01*
X67250Y89691D01*
X67431Y89709D01*
X67525Y89623D01*
Y88526D01*
X66040D01*
X65717Y88494D01*
X65406Y88400D01*
X65119Y88247D01*
X65084Y88218D01*
X63892D01*
Y88516D01*
X64044Y88701D01*
X64221Y89031D01*
X64329Y89389D01*
X64366Y89762D01*
X64329Y90134D01*
X64221Y90493D01*
X64044Y90823D01*
X63892Y91008D01*
Y92848D01*
X58917D01*
Y92368D01*
X58796Y92269D01*
X58571Y91995D01*
X58404Y91682D01*
X58301Y91343D01*
X58266Y90990D01*
X58300Y90644D01*
X58215Y90550D01*
X56723D01*
X56642Y90558D01*
X49530D01*
Y127374D01*
X53975D01*
X54056Y127382D01*
X57012D01*
Y126354D01*
X62092D01*
Y125860D01*
X61884D01*
Y123060D01*
Y121028D01*
X62219D01*
Y120300D01*
X61903D01*
X61550Y120265D01*
X61211Y120162D01*
X60898Y119995D01*
X60624Y119770D01*
X60399Y119496D01*
X60232Y119183D01*
X60129Y118844D01*
X60094Y118491D01*
X60129Y118138D01*
X60232Y117799D01*
X60380Y117522D01*
X60357Y117151D01*
X60320Y117101D01*
X60158Y116764D01*
X60065Y116401D01*
X60045Y116028D01*
X60098Y115657D01*
X60222Y115304D01*
X60412Y114982D01*
X60662Y114703D01*
X60962Y114479D01*
X61299Y114317D01*
X61662Y114224D01*
X62035Y114204D01*
X62406Y114257D01*
X62759Y114381D01*
X63081Y114571D01*
X63360Y114821D01*
X63584Y115121D01*
X63746Y115458D01*
X63839Y115821D01*
X63859Y116194D01*
X63806Y116565D01*
X63682Y116918D01*
X63666Y116945D01*
X63692Y117346D01*
X63807Y117486D01*
X63974Y117799D01*
X64077Y118138D01*
X64112Y118491D01*
X64077Y118844D01*
X63974Y119183D01*
X63807Y119496D01*
X63797Y119508D01*
X63851Y119623D01*
X64390D01*
Y119288D01*
X67690D01*
Y119623D01*
X68464D01*
Y121028D01*
X68672D01*
Y123060D01*
Y125860D01*
X68337D01*
Y126481D01*
X74687D01*
Y127382D01*
X77389D01*
X77470Y127374D01*
D02*
G37*
G36*
X58917Y87238D02*
X61077D01*
Y86371D01*
X58790D01*
Y86325D01*
X57975D01*
Y83525D01*
X59200D01*
Y83196D01*
X59171D01*
Y80380D01*
X59250D01*
Y79650D01*
X62050D01*
Y79664D01*
X63753D01*
Y79675D01*
X64950D01*
Y82575D01*
X64781D01*
Y83050D01*
X64975D01*
Y85459D01*
X65090Y85513D01*
X65119Y85489D01*
X65406Y85336D01*
X65717Y85242D01*
X66040Y85210D01*
X73653D01*
X73734Y85218D01*
X77135D01*
X77216Y85210D01*
X82042D01*
Y75311D01*
X49530D01*
Y87242D01*
X56642D01*
X56723Y87250D01*
X58917D01*
Y87238D01*
D02*
G37*
G36*
X82042Y137160D02*
Y130690D01*
X77470D01*
X77389Y130682D01*
X74687D01*
Y131202D01*
X74294D01*
Y131815D01*
X75576D01*
Y136282D01*
X68950D01*
Y132006D01*
X68830Y131966D01*
X68718Y132110D01*
X68718Y132111D01*
Y136282D01*
X62092D01*
Y133107D01*
X57012D01*
Y130682D01*
X54056D01*
X53975Y130690D01*
X49530D01*
Y137324D01*
X49620Y137413D01*
X82042Y137160D01*
D02*
G37*
%LPC*%
G36*
X81217Y114493D02*
X78257D01*
Y101536D01*
X81217D01*
Y114493D01*
D02*
G37*
G36*
X58254Y79878D02*
X50281D01*
Y76570D01*
X58254D01*
Y79878D01*
D02*
G37*
G36*
X80539Y80005D02*
X65902D01*
Y76364D01*
X80539D01*
Y80005D01*
D02*
G37*
G36*
X57223Y120300D02*
X56823D01*
X56470Y120265D01*
X56131Y120162D01*
X55994Y120089D01*
X54298Y119985D01*
X54043Y120094D01*
X53677Y120171D01*
X53303Y120175D01*
X52935Y120106D01*
X52588Y119966D01*
X52274Y119762D01*
X52007Y119500D01*
X51796Y119191D01*
X51649Y118847D01*
X51572Y118481D01*
X51567Y118107D01*
X51636Y117739D01*
X51776Y117391D01*
X51980Y117078D01*
X52242Y116810D01*
X52551Y116599D01*
X52895Y116452D01*
X53262Y116375D01*
X53636Y116371D01*
X54004Y116440D01*
X54351Y116580D01*
X54497Y116675D01*
X56254Y116783D01*
X56470Y116717D01*
X56823Y116682D01*
X57223D01*
X57576Y116717D01*
X57915Y116820D01*
X58228Y116987D01*
X58502Y117212D01*
X58727Y117486D01*
X58894Y117799D01*
X58997Y118138D01*
X59032Y118491D01*
X58997Y118844D01*
X58894Y119183D01*
X58727Y119496D01*
X58502Y119770D01*
X58228Y119995D01*
X57915Y120162D01*
X57576Y120265D01*
X57223Y120300D01*
D02*
G37*
G36*
X59207Y125598D02*
X52567D01*
Y122290D01*
X59207D01*
Y125598D01*
D02*
G37*
G36*
X75322Y116089D02*
X65775D01*
Y108659D01*
X65482Y108570D01*
X65195Y108417D01*
X64944Y108210D01*
X64737Y107959D01*
X64584Y107672D01*
X64579Y107657D01*
X64452D01*
X64448Y107672D01*
X64295Y107959D01*
X64088Y108210D01*
X63837Y108417D01*
X63550Y108570D01*
X63239Y108664D01*
X62916Y108696D01*
X62593Y108664D01*
X62282Y108570D01*
X61995Y108417D01*
X61744Y108210D01*
X61592Y108026D01*
X58038D01*
Y108164D01*
X55240D01*
Y108580D01*
X51440D01*
Y104780D01*
X55240D01*
Y105064D01*
X57751D01*
X57805Y104949D01*
X57595Y104693D01*
X57418Y104363D01*
X57309Y104004D01*
X57273Y103632D01*
X57309Y103260D01*
X57354Y103114D01*
X57156Y102916D01*
X56843Y102821D01*
X56530Y102654D01*
X56256Y102429D01*
X56031Y102155D01*
X55864Y101842D01*
X55761Y101503D01*
X55726Y101150D01*
X55761Y100797D01*
X55864Y100458D01*
X56031Y100145D01*
X56256Y99871D01*
X56530Y99646D01*
X56843Y99479D01*
X57182Y99376D01*
X57535Y99341D01*
X57935D01*
X58288Y99376D01*
X58624Y99478D01*
X58657Y99423D01*
X58687Y99367D01*
X56268Y96948D01*
X54004D01*
X53806Y97054D01*
X53447Y97163D01*
X53075Y97199D01*
X52703Y97163D01*
X52344Y97054D01*
X52014Y96877D01*
X51725Y96640D01*
X51488Y96351D01*
X51311Y96021D01*
X51202Y95662D01*
X51166Y95290D01*
X51202Y94918D01*
X51311Y94559D01*
X51488Y94229D01*
X51725Y93940D01*
X52014Y93703D01*
X52344Y93526D01*
X52703Y93417D01*
X53075Y93381D01*
X53447Y93417D01*
X53806Y93526D01*
X54004Y93632D01*
X56955D01*
X57278Y93664D01*
X57589Y93758D01*
X57876Y93911D01*
X58127Y94118D01*
X63394Y99384D01*
X63707Y99479D01*
X64020Y99646D01*
X64294Y99871D01*
X64519Y100145D01*
X64686Y100458D01*
X64789Y100797D01*
X64824Y101150D01*
X64789Y101503D01*
X64686Y101842D01*
X64519Y102155D01*
X64294Y102429D01*
X64020Y102654D01*
X63707Y102821D01*
X63368Y102924D01*
X63015Y102959D01*
X62615D01*
X62262Y102924D01*
X61923Y102821D01*
X61610Y102654D01*
X61336Y102429D01*
X61111Y102155D01*
X60944Y101842D01*
X60849Y101529D01*
X59718Y100398D01*
X59662Y100428D01*
X59607Y100461D01*
X59701Y100771D01*
X60354Y101425D01*
X60561Y101676D01*
X60714Y101963D01*
X60808Y102274D01*
X60840Y102597D01*
Y102703D01*
X60946Y102901D01*
X61055Y103260D01*
X61091Y103632D01*
X61055Y104004D01*
X60946Y104363D01*
X60769Y104693D01*
X60532Y104982D01*
X60410Y105082D01*
X60453Y105202D01*
X61943D01*
X61995Y105159D01*
X62282Y105006D01*
X62593Y104912D01*
X62916Y104880D01*
X63239Y104912D01*
X63550Y105006D01*
X63837Y105159D01*
X64088Y105366D01*
X64295Y105617D01*
X64448Y105904D01*
X64452Y105919D01*
X64579D01*
X64584Y105904D01*
X64737Y105617D01*
X64944Y105366D01*
X65195Y105159D01*
X65387Y105057D01*
X65411Y104932D01*
X65215Y104693D01*
X65038Y104363D01*
X64929Y104004D01*
X64893Y103632D01*
X64929Y103260D01*
X65038Y102901D01*
X65215Y102571D01*
X65452Y102282D01*
X65741Y102045D01*
X65775Y102027D01*
Y101843D01*
X66154D01*
X66430Y101759D01*
X66802Y101723D01*
X67174Y101759D01*
X67450Y101843D01*
X71497D01*
X71527Y101720D01*
X71214Y101552D01*
X70925Y101315D01*
X70688Y101026D01*
X70511Y100696D01*
X70402Y100337D01*
X70366Y99965D01*
X70402Y99593D01*
X70511Y99234D01*
X70688Y98904D01*
X70925Y98615D01*
X71214Y98378D01*
X71544Y98201D01*
X71903Y98092D01*
X72275Y98056D01*
X72647Y98092D01*
X73006Y98201D01*
X73204Y98307D01*
X74738D01*
X75200Y97845D01*
X75328Y97505D01*
X75525Y97187D01*
X75781Y96914D01*
X76085Y96696D01*
X76426Y96541D01*
X76791Y96456D01*
X77165Y96444D01*
X77534Y96505D01*
X77884Y96637D01*
X78202Y96834D01*
X78475Y97090D01*
X78693Y97394D01*
X78848Y97735D01*
X78933Y98100D01*
X78945Y98474D01*
X78884Y98843D01*
X78752Y99193D01*
X78555Y99511D01*
X78299Y99784D01*
X77995Y100002D01*
X77654Y100157D01*
X77554Y100180D01*
X76597Y101137D01*
X76346Y101344D01*
X76059Y101497D01*
X75748Y101591D01*
X75424Y101623D01*
X73204D01*
X73006Y101729D01*
X72647Y101838D01*
Y101838D01*
X72648Y101843D01*
X75322D01*
Y105575D01*
X76450D01*
Y107425D01*
Y110725D01*
X75322D01*
Y116089D01*
D02*
G37*
G36*
X76325Y121966D02*
X75951Y121953D01*
X75586Y121868D01*
X75245Y121714D01*
X74941Y121496D01*
X74685Y121223D01*
X74488Y120905D01*
X74356Y120555D01*
X74295Y120185D01*
X74307Y119811D01*
X74392Y119447D01*
X74547Y119106D01*
X74765Y118802D01*
X75038Y118546D01*
X75356Y118348D01*
X75465Y118307D01*
X75713Y117990D01*
X75774Y117699D01*
X75921Y117355D01*
X76132Y117046D01*
X76400Y116784D01*
X76713Y116579D01*
X77060Y116440D01*
X77428Y116371D01*
X77802Y116375D01*
X78169Y116452D01*
X78513Y116599D01*
X78822Y116810D01*
X79084Y117078D01*
X79288Y117391D01*
X79427Y117739D01*
X79496Y118107D01*
X79492Y118481D01*
X79415Y118847D01*
X79268Y119191D01*
X79057Y119500D01*
X78790Y119762D01*
X78476Y119966D01*
X78331Y120025D01*
X78086Y120338D01*
X78008Y120674D01*
X77853Y121015D01*
X77635Y121319D01*
X77362Y121575D01*
X77044Y121773D01*
X76694Y121905D01*
X76325Y121966D01*
D02*
G37*
%LPD*%
D10*
X69175Y89550D02*
D03*
Y91450D02*
D03*
X56388Y104714D02*
D03*
X72644Y130622D02*
D03*
Y132522D02*
D03*
X66040Y124394D02*
D03*
Y122494D02*
D03*
Y120838D02*
D03*
Y118938D02*
D03*
X62050Y84575D02*
D03*
Y82675D02*
D03*
X62103Y81214D02*
D03*
Y79314D02*
D03*
X56388Y106614D02*
D03*
D11*
X63550Y79425D02*
D03*
Y81125D02*
D03*
X64516Y122594D02*
D03*
Y124294D02*
D03*
X60600Y82800D02*
D03*
Y84500D02*
D03*
X60650Y79400D02*
D03*
Y81100D02*
D03*
D12*
X61634Y122428D02*
D03*
X63334D02*
D03*
X68922Y124460D02*
D03*
X67222D02*
D03*
X61634D02*
D03*
X63334D02*
D03*
X68922Y122428D02*
D03*
X67222D02*
D03*
X57725Y84925D02*
D03*
X59425D02*
D03*
X65225Y84450D02*
D03*
X63525D02*
D03*
D13*
X61951Y128905D02*
D03*
X68351D02*
D03*
D14*
X65151Y125705D02*
D03*
D15*
X76800Y109075D02*
D03*
Y107225D02*
D03*
X76134Y129032D02*
D03*
X74234D02*
D03*
X57338D02*
D03*
X55438D02*
D03*
X75753Y86868D02*
D03*
X73853D02*
D03*
X60005Y88900D02*
D03*
X58105D02*
D03*
X74900Y109075D02*
D03*
Y107225D02*
D03*
D16*
X62452Y87818D02*
D03*
X64802Y86868D02*
D03*
D17*
X62452Y85918D02*
D03*
D18*
X75424Y99965D02*
X77040Y98349D01*
X72275Y99965D02*
X75424D01*
X77216Y86868D02*
X87376D01*
X45339Y88900D02*
X56642D01*
X77470Y129032D02*
X83185D01*
X49022D02*
X53975D01*
X53075Y95290D02*
X56955D01*
X62815Y101150D01*
X57735D02*
X59182Y102597D01*
Y103632D01*
X66040Y86868D02*
X73653D01*
X53469Y118273D02*
X57023Y118491D01*
X61952Y116111D02*
X62103Y118491D01*
X69112Y113505D02*
X71757Y113375D01*
X76200Y120061D02*
X77595Y118273D01*
D19*
X75753Y86868D02*
X77216D01*
X56261Y88900D02*
X58105D01*
X57675Y84975D02*
X57725Y84925D01*
X76134Y129032D02*
X77470D01*
X53975D02*
X55438D01*
X69175Y89550D02*
X71959D01*
X69175Y86908D02*
Y89550D01*
X67250Y91600D02*
X69200D01*
X62742Y106614D02*
X62916Y106788D01*
X56388Y106614D02*
X62742D01*
X53340Y106680D02*
X56322D01*
D20*
X64802Y86868D02*
X66040D01*
D21*
X79337Y103149D02*
Y102616D01*
X80137D01*
Y103149D01*
X79737Y102616D02*
Y102883D01*
X80137Y103416D02*
X79337D01*
Y103816D01*
X79471Y103949D01*
X79737D01*
X79870Y103816D01*
Y103416D01*
X79337Y104749D02*
Y104215D01*
X79737D01*
Y104482D01*
Y104215D01*
X80137D01*
X79471Y106348D02*
X79337Y106215D01*
Y105948D01*
X79471Y105815D01*
X79604D01*
X79737Y105948D01*
Y106215D01*
X79870Y106348D01*
X80004D01*
X80137Y106215D01*
Y105948D01*
X80004Y105815D01*
X79337Y106615D02*
X80004D01*
X80137Y106748D01*
Y107015D01*
X80004Y107148D01*
X79337D01*
X80137Y107414D02*
X79337D01*
Y107814D01*
X79471Y107948D01*
X79737D01*
X79870Y107814D01*
Y107414D01*
X79337Y108747D02*
Y108214D01*
X80137D01*
Y108747D01*
X79737Y108214D02*
Y108481D01*
X80137Y109014D02*
X79337D01*
Y109414D01*
X79471Y109547D01*
X79737D01*
X79870Y109414D01*
Y109014D01*
Y109281D02*
X80137Y109547D01*
X79471Y110347D02*
X79337Y110214D01*
Y109947D01*
X79471Y109814D01*
X79604D01*
X79737Y109947D01*
Y110214D01*
X79870Y110347D01*
X80004D01*
X80137Y110214D01*
Y109947D01*
X80004Y109814D01*
X79337Y111013D02*
Y110747D01*
X79471Y110613D01*
X80004D01*
X80137Y110747D01*
Y111013D01*
X80004Y111147D01*
X79471D01*
X79337Y111013D01*
X80137Y111413D02*
X79337D01*
X80137Y111946D01*
X79337D01*
Y112213D02*
Y112479D01*
Y112346D01*
X80137D01*
Y112213D01*
Y112479D01*
X79471Y113413D02*
X79337Y113279D01*
Y113013D01*
X79471Y112879D01*
X80004D01*
X80137Y113013D01*
Y113279D01*
X80004Y113413D01*
D22*
X67056Y77851D02*
Y78517D01*
X67389Y78851D01*
X67722Y78517D01*
Y77851D01*
Y78351D01*
X67056D01*
X68056Y77851D02*
Y78517D01*
X68222D01*
X68389Y78351D01*
Y77851D01*
Y78351D01*
X68556Y78517D01*
X68722Y78351D01*
Y77851D01*
X69055Y77518D02*
Y78517D01*
X69555D01*
X69722Y78351D01*
Y78018D01*
X69555Y77851D01*
X69055D01*
X70055D02*
X70388D01*
X70222D01*
Y78851D01*
X70055D01*
X70888Y77851D02*
X71221D01*
X71055D01*
Y78517D01*
X70888D01*
X72721Y78851D02*
Y77851D01*
X73221D01*
X73387Y78018D01*
Y78184D01*
X73221Y78351D01*
X72721D01*
X73221D01*
X73387Y78517D01*
Y78684D01*
X73221Y78851D01*
X72721D01*
X74720Y77851D02*
Y78517D01*
X75053Y78851D01*
X75387Y78517D01*
Y77851D01*
Y78351D01*
X74720D01*
X75720Y77851D02*
Y78517D01*
X76220D01*
X76386Y78351D01*
Y77851D01*
X77386Y78517D02*
X76886D01*
X76720Y78351D01*
Y78018D01*
X76886Y77851D01*
X77386D01*
X77719Y78851D02*
Y77851D01*
Y78351D01*
X77886Y78517D01*
X78219D01*
X78386Y78351D01*
Y77851D01*
X78886Y78517D02*
X79219D01*
X79385Y78351D01*
Y77851D01*
X78886D01*
X78719Y78018D01*
X78886Y78184D01*
X79385D01*
X51435Y78724D02*
Y77724D01*
X51935D01*
X52101Y77891D01*
Y78057D01*
X51935Y78224D01*
X51435D01*
X51935D01*
X52101Y78390D01*
Y78557D01*
X51935Y78724D01*
X51435D01*
X53101D02*
X52435D01*
Y78224D01*
X52768D01*
X52435D01*
Y77724D01*
X53434D02*
Y78724D01*
X53934D01*
X54101Y78557D01*
Y78224D01*
X53934Y78057D01*
X53434D01*
X53768D02*
X54101Y77724D01*
X54434Y77891D02*
X54601Y77724D01*
X54934D01*
X55100Y77891D01*
Y78557D01*
X54934Y78724D01*
X54601D01*
X54434Y78557D01*
Y78390D01*
X54601Y78224D01*
X55100D01*
X56100Y77724D02*
X55434D01*
X56100Y78390D01*
Y78557D01*
X55934Y78724D01*
X55600D01*
X55434Y78557D01*
X56433Y77724D02*
Y78390D01*
X56767Y78724D01*
X57100Y78390D01*
Y77724D01*
Y78224D01*
X56433D01*
X53721Y124444D02*
Y123444D01*
X54221D01*
X54387Y123611D01*
Y123777D01*
X54221Y123944D01*
X53721D01*
X54221D01*
X54387Y124110D01*
Y124277D01*
X54221Y124444D01*
X53721D01*
X55387D02*
X54721D01*
Y123944D01*
X55054D01*
X54721D01*
Y123444D01*
X55720D02*
Y124444D01*
X56220D01*
X56387Y124277D01*
Y123944D01*
X56220Y123777D01*
X55720D01*
X56054D02*
X56387Y123444D01*
X56720Y123611D02*
X56887Y123444D01*
X57220D01*
X57386Y123611D01*
Y124277D01*
X57220Y124444D01*
X56887D01*
X56720Y124277D01*
Y124110D01*
X56887Y123944D01*
X57386D01*
X57720Y123444D02*
X58053D01*
X57886D01*
Y124444D01*
X57720Y124277D01*
D23*
X70231Y95250D02*
D03*
D24*
X67691Y96901D02*
D03*
D25*
X61976Y81788D02*
D03*
D26*
X61722Y84963D02*
D03*
D27*
X61404Y90043D02*
D03*
D28*
X70549Y108966D02*
D03*
D29*
X72263Y134048D02*
D03*
D30*
X71311Y128842D02*
D03*
D31*
X65405Y134112D02*
D03*
D32*
X59563Y129730D02*
D03*
D33*
X65341Y121729D02*
D03*
D34*
X65215Y125095D02*
D03*
D35*
X66802Y103632D02*
D03*
X59182D02*
D03*
X77040Y98349D02*
D03*
X67250Y98600D02*
D03*
X67250Y91600D02*
D03*
X70250Y95000D02*
D03*
X72275Y99965D02*
D03*
X67845Y95150D02*
D03*
X62457Y89762D02*
D03*
X53075Y95290D02*
D03*
Y102910D02*
D03*
X53340Y109220D02*
D03*
X64120Y134112D02*
D03*
X71120Y134112D02*
D03*
X66445Y134198D02*
D03*
X59539Y130978D02*
D03*
X77595Y118273D02*
D03*
X71757Y113375D02*
D03*
X71120Y128859D02*
D03*
X76200Y120061D02*
D03*
X53469Y118273D02*
D03*
X59307Y113375D02*
D03*
X69112Y113505D02*
D03*
X61952Y116111D02*
D03*
D36*
X57735Y101150D02*
D03*
X62815D02*
D03*
X60275Y90990D02*
D03*
X62103Y118491D02*
D03*
X57023D02*
D03*
X59563Y128651D02*
D03*
D37*
X71960Y89551D02*
D03*
X72275Y107585D02*
D03*
D38*
X62916Y106788D02*
D03*
X64516Y108788D02*
D03*
X66116Y106788D02*
D03*
D39*
X67720Y131112D02*
D03*
D40*
X53340Y106680D02*
D03*
D41*
X55626Y84963D02*
D03*
X55499Y92075D02*
D03*
X75311Y83439D02*
D03*
X75438Y90551D02*
D03*
X52578Y134747D02*
D03*
M02*
